<svg xmlns="http://www.w3.org/2000/svg" width="20" height="20" viewBox="0 0 192 192" fill="none">
  <path d="M171.68 137.68C171.718 137.972 171.718 138.268 171.68 138.56C171.635 141.274 171.204 143.967 170.4 146.56C168.936 151.706 166.315 156.45 162.738 160.43C159.161 164.409 154.722 167.518 149.76 169.52C125.76 176.72 100.24 169.52 77.76 158.08C59.212 148.773 44.13 133.775 34.72 115.28C23.36 92.96 16 67.28 23.2 43.28C25.274 38.334 28.449 33.926 32.483 30.391C36.517 26.856 41.304 24.287 46.48 22.88L54.48 20.8C55.106 20.639 55.769 20.712 56.344 21.007C56.919 21.302 57.366 21.798 57.6 22.4L64 40.56L73.44 66.96V67.68C73.597 68.32 73.541 68.995 73.281 69.601C73.022 70.207 72.572 70.712 72 71.04C68.918 73.352 65.488 75.161 61.84 76.48L58.32 78C58.32 78 68.08 111.68 104 134L114.16 130.48C117.784 129.074 121.598 128.216 125.48 127.92L126.2 127.84C126.847 127.705 127.519 127.786 128.115 128.072C128.711 128.358 129.199 128.832 129.5 129.42L151.68 172.38" stroke="currentColor" stroke-width="8" stroke-linecap="round" stroke-linejoin="round"/>
</svg>
